<?xml version="1.0" encoding="UTF-8"?>
<svg version="1.1" xmlns="http://www.w3.org/2000/svg" width="225" height="225">
<path d="M0 0 C74.25 0 148.5 0 225 0 C225 74.25 225 148.5 225 225 C150.75 225 76.5 225 0 225 C0 150.75 0 76.5 0 0 Z " fill="#FDFDFD" transform="translate(0,0)"/>
<path d="M0 0 C2.05078125 0.03255208 4.1015625 0.06510417 6.15234375 0.09765625 C4.90712255 6.75967772 3.36660936 13.26412362 1.52734375 19.78515625 C-0.88261724 28.4587387 -3.16525129 37.1607176 -5.39224243 45.88262939 C-13.38484352 77.17203079 -13.38484352 77.17203079 -15.84765625 82.09765625 C-18.48765625 82.09765625 -21.12765625 82.09765625 -23.84765625 82.09765625 C-22.4947947 71.79975494 -19.73593999 62.04220255 -16.84765625 52.09765625 C-15.90739437 48.84844753 -14.97019038 45.59837314 -14.03515625 42.34765625 C-13.79289307 41.50823486 -13.55062988 40.66881348 -13.30102539 39.80395508 C-11.71418609 34.26139905 -10.19806521 28.70208335 -8.72265625 23.12890625 C-8.54132645 22.44439392 -8.35999664 21.75988159 -8.173172 21.05462646 C-7.2681712 17.6332691 -6.3686124 14.21057099 -5.4753418 10.78613281 C-4.98481323 8.92166504 -4.98481323 8.92166504 -4.484375 7.01953125 C-4.19264404 5.9015918 -3.90091309 4.78365234 -3.6003418 3.63183594 C-2.56185452 0.13540457 -2.56185452 0.13540457 0 0 Z " fill="#080808" transform="translate(136.84765625,74.90234375)"/>
<path d="M0 0 C3.3 0 6.6 0 10 0 C10 3.63 10 7.26 10 11 C6.7 11 3.4 11 0 11 C0 7.37 0 3.74 0 0 Z " fill="#000000" transform="translate(92,145)"/>
<path d="M0 0 C3.3 0 6.6 0 10 0 C10 3.63 10 7.26 10 11 C6.7 11 3.4 11 0 11 C0 7.37 0 3.74 0 0 Z " fill="#060606" transform="translate(92,97)"/>
</svg>
